# xmcd CD database file
#
# Track frame offsets:
#	150
#	16595
#	28964
#	42537
#	56224
#	68753
#	82455
#	95864
#	109908
#	119387
#	129996
#	147568
#	159499
#	172165
#	190020
#	202977
#	216180
#	228821
#	246253
#	256970
#	271490
#	280906
#	294519
#	307863
#	320510
#
# Disc length: 4539 seconds
#
# Revision: 2
# Processed by: cddbd v1.5.2PL0 Copyright (c) Steve Scherf et al.
# Submitted via: CDex 1.70beta2
#
DISCID=8011b919
DTITLE=Золотое кольцо - Лучшие песни
DYEAR=2004
DGENRE=Country
TTITLE0=Широка река(дует с А.Зацепиным)
TTITLE1=В сказку пусти меня
TTITLE2=Ничего не получится
TTITLE3=Пойдешь и не воротишься
TTITLE4=Подари мне,горе
TTITLE5=Пойте,птахи,песенки
TTITLE6=Заплутавшее счастье
TTITLE7=Подари,березка
TTITLE8=Течет ручей
TTITLE9=Виновата ли я
TTITLE10=Я не колдунья
TTITLE11=Давай,дружок,на посошок
TTITLE12=Уходи горе
TTITLE13=Напилася я пьяна
TTITLE14=Зачем это лето
TTITLE15=Синеглазый василек
TTITLE16=Над Печерой рекой
TTITLE17=Словно 1000 лет назад
TTITLE18=Я сама любовь
TTITLE19=Яблоневый вечер
TTITLE20=Тячэ вада в ярок
TTITLE21=Ты ж мяне пидманула
TTITLE22=Очаровательные глазки
TTITLE23=Поздняя любовь
TTITLE24=Ах,судьба моя,судьба
EXTD=YEAR: 2004
EXTT0=
EXTT1=
EXTT2=
EXTT3=
EXTT4=
EXTT5=
EXTT6=
EXTT7=
EXTT8=
EXTT9=
EXTT10=
EXTT11=
EXTT12=
EXTT13=
EXTT14=
EXTT15=
EXTT16=
EXTT17=
EXTT18=
EXTT19=
EXTT20=
EXTT21=
EXTT22=
EXTT23=
EXTT24=
PLAYORDER=
